<?xml version="1.0" encoding="utf-8"?>
<!-- Generator: Adobe Illustrator 26.0.1, SVG Export Plug-In . SVG Version: 6.00 Build 0)  -->
<svg version="1.1" id="图层_1" xmlns="http://www.w3.org/2000/svg" xmlns:xlink="http://www.w3.org/1999/xlink" x="0px" y="0px"
	 viewBox="0 0 24 24" style="enable-background:new 0 0 24 24;" xml:space="preserve">
<path d="M2.6,21.4c2,2,5.9,2.9,8.9,0l3.5-3.5l-1-1l-3.5,3.5c-1.4,1.4-4.2,1.9-6.4-0.3s-1.8-5-0.3-6.4l3.5-3.5l-1-1l-3.5,3.5
	c-3,3-2,6.9,0,8.9L2.6,21.4z M21.4,2.6c2,2,2.9,5.9,0,8.9L17.9,15l-1-1l3.5-3.5c1.4-1.4,1.9-4.2-0.3-6.4s-5-1.8-6.4-0.3l-3.5,3.5
	l-1-1l3.5-3.5c3-3,6.9-2,8.9,0L21.4,2.6z"/>
<path d="M8.54,14.44l5.87-5.87c0.29-0.29,0.77-0.29,1.06,0l0,0c0.29,0.29,0.29,0.77,0,1.06L9.6,15.5c-0.29,0.29-0.77,0.29-1.06,0
	l0,0C8.25,15.21,8.25,14.73,8.54,14.44z"/>
</svg>
