<?xml version="1.0" encoding="utf-8"?>
<!-- Generator: Adobe Illustrator 26.0.1, SVG Export Plug-In . SVG Version: 6.00 Build 0)  -->
<svg version="1.1" id="图层_1" xmlns="http://www.w3.org/2000/svg" xmlns:xlink="http://www.w3.org/1999/xlink" x="0px" y="0px"
	 viewBox="0 0 24 24" style="enable-background:new 0 0 24 24;" xml:space="preserve">
<path d="M12.06,0.61c-6.4,0-11.6,5.1-11.6,11.5s5.1,11.5,11.6,11.5s11.5-5.1,11.5-11.5S18.46,0.61,12.06,0.61 M12.06,21.61
	c-6.07,0-10.94-4.2-10.94-9.5s4.87-9.4,10.94-9.4S23,6.91,23,12.21S18.12,21.61,12.06,21.61"/>
<g>
	<path d="M10.08,9.69c0.1-0.08,0.2-0.14,0.3-0.18s0.19-0.07,0.26-0.09c0.09-0.02,0.17-0.03,0.26-0.02c0.21,0.02,0.34,0.08,0.39,0.2
		s0.06,0.3,0.02,0.56c-0.02,0.13-0.07,0.3-0.14,0.5s-0.15,0.45-0.25,0.74s-0.19,0.63-0.3,1s-0.21,0.8-0.3,1.27
		c-0.09,0.38-0.2,0.82-0.3,1.32c-0.09,0.44-0.21,0.96-0.33,1.58S9.42,17.9,9.28,18.7c-0.04,0.2-0.12,0.31-0.25,0.34
		s-0.26,0.02-0.4-0.05c-0.05-0.03-0.11-0.07-0.15-0.11c-0.04-0.04-0.08-0.08-0.13-0.13s-0.09-0.12-0.12-0.21
		c0.18-0.66,0.34-1.25,0.47-1.79s0.26-1.01,0.37-1.41c0.12-0.46,0.23-0.88,0.33-1.24c0.04-0.16,0.08-0.33,0.11-0.49
		s0.07-0.32,0.11-0.47c-0.1,0.16-0.21,0.32-0.33,0.47S9.04,13.89,8.9,14s-0.29,0.19-0.45,0.25s-0.33,0.08-0.5,0.05
		c-0.42-0.05-0.72-0.21-0.9-0.47s-0.25-0.59-0.23-1.01c0.01-0.16,0.03-0.34,0.07-0.54s0.08-0.38,0.13-0.56s0.09-0.34,0.13-0.49
		s0.08-0.25,0.1-0.31c0.09-0.3,0.16-0.55,0.21-0.76s0.01-0.39-0.1-0.53c0.11-0.07,0.21-0.12,0.31-0.15s0.19-0.05,0.26-0.06
		c0.09-0.01,0.17-0.01,0.26,0c0.21,0.03,0.33,0.11,0.37,0.23s0.02,0.31-0.04,0.56c-0.03,0.13-0.08,0.3-0.15,0.51
		s-0.14,0.42-0.22,0.64S8,11.8,7.94,11.98c-0.06,0.18-0.1,0.31-0.11,0.39c-0.07,0.35-0.07,0.62-0.01,0.81s0.2,0.29,0.41,0.29
		c0.1,0,0.21-0.04,0.34-0.13s0.25-0.21,0.38-0.36s0.26-0.32,0.38-0.51s0.24-0.38,0.35-0.58s0.2-0.39,0.28-0.57s0.14-0.36,0.18-0.5
		c0.05-0.29,0.09-0.52,0.11-0.68S10.21,9.82,10.08,9.69z"/>
	<path d="M16.48,11.26c-0.01,0.3-0.08,0.63-0.21,0.99s-0.32,0.69-0.56,0.99S15.19,13.8,14.86,14s-0.7,0.3-1.11,0.3
		c-0.41,0-0.75-0.06-1-0.18c-0.25-0.12-0.45-0.27-0.59-0.44s-0.23-0.35-0.28-0.54s-0.07-0.34-0.07-0.47s0.05-0.22,0.15-0.29
		s0.21-0.12,0.35-0.16s0.27-0.06,0.41-0.07s0.26-0.02,0.35-0.02c-0.02,0.07-0.04,0.18-0.06,0.34c-0.02,0.16,0,0.31,0.05,0.46
		s0.14,0.29,0.27,0.4s0.34,0.18,0.61,0.18c0.21,0,0.41-0.08,0.6-0.23s0.36-0.35,0.5-0.58s0.26-0.49,0.35-0.77s0.13-0.55,0.14-0.81
		c0.01-0.27-0.05-0.48-0.16-0.66s-0.3-0.26-0.55-0.26c-0.1,0-0.21,0.01-0.32,0.04c-0.09,0.02-0.2,0.04-0.32,0.09
		s-0.24,0.1-0.38,0.17l-0.26-0.67c0.27-0.12,0.55-0.27,0.86-0.46S15,8.97,15.26,8.7s0.48-0.57,0.66-0.91
		c0.18-0.34,0.27-0.72,0.29-1.14c0.02-0.25-0.05-0.45-0.19-0.61s-0.36-0.23-0.64-0.23c-0.14,0-0.29,0.03-0.46,0.1
		s-0.33,0.16-0.47,0.28s-0.27,0.27-0.37,0.44S13.91,6.99,13.9,7.2c0,0.12,0.02,0.22,0.05,0.3c0.02,0.08,0.06,0.15,0.12,0.21
		s0.14,0.09,0.25,0.09c-0.11,0.08-0.21,0.14-0.31,0.18c-0.1,0.04-0.18,0.07-0.25,0.09c-0.09,0.02-0.16,0.04-0.23,0.04
		c-0.09,0-0.19-0.02-0.28-0.05s-0.17-0.08-0.24-0.15c-0.07-0.07-0.13-0.16-0.17-0.28s-0.06-0.26-0.05-0.43s0.06-0.38,0.16-0.61
		c0.1-0.23,0.25-0.46,0.46-0.67s0.48-0.39,0.82-0.54s0.75-0.22,1.24-0.22c0.22,0,0.43,0.03,0.64,0.1s0.4,0.17,0.56,0.31
		s0.29,0.32,0.39,0.53s0.14,0.47,0.13,0.77c-0.01,0.23-0.06,0.48-0.16,0.75s-0.24,0.53-0.42,0.79s-0.4,0.5-0.65,0.74
		s-0.54,0.44-0.86,0.62c0.14,0,0.29,0.02,0.46,0.06s0.32,0.12,0.46,0.23s0.25,0.26,0.34,0.45S16.49,10.95,16.48,11.26z"/>
</g>
</svg>
